<?xml version="1.0" encoding="UTF-8"?>
<svg width="161px" height="46px" viewBox="0 0 161 46" version="1.1" xmlns="http://www.w3.org/2000/svg" xmlns:xlink="http://www.w3.org/1999/xlink">
    <!-- Generator: Sketch 47.1 (45422) - http://www.bohemiancoding.com/sketch -->
    <title>Logo</title>
    <desc>Created with Sketch.</desc>
    <defs></defs>
    <g id="Page-1" stroke="none" stroke-width="1" fill="none" fill-rule="evenodd">
        <g id="Custom-Preset-5" transform="translate(-3.000000, -7.000000)" fill="#FFFFFF">
            <g id="Logo" transform="translate(3.000000, 7.000000)">
                <g id="rocket-ship" stroke-width="1" fill-rule="evenodd">
                    <path d="M45.8208592,0.921654663 C45.7714697,0.531083778 45.4568749,0.223479166 45.0575455,0.175187073 C41.4588995,-0.260013946 37.7454405,0.119342188 34.317434,1.27182956 C30.8890765,2.42443136 27.7218279,4.35851824 25.158372,6.8650152 L19.3085241,12.5848818 L10.8644395,13.649711 C10.6719141,13.6739714 10.493199,13.7599131 10.3559149,13.8940323 L2.21448737,21.8545605 C1.98404201,22.0798854 1.90024369,22.4116361 1.99703309,22.7160365 C2.09358841,23.0204369 2.35493147,23.2473639 2.67537809,23.3053831 L8.83116007,24.420221 L10.0407349,25.6029195 L7.46557527,26.9664273 C7.22190475,27.0953969 7.05477627,27.329419 7.01486674,27.5975431 C6.97495721,27.8656673 7.06683106,28.1364234 7.26275058,28.3279897 L17.028063,37.8763206 C17.1939041,38.0384768 17.4176783,38.127737 17.6488259,38.127737 C17.6907251,38.127737 17.7330924,38.1247617 17.7752256,38.118811 C18.0494427,38.0797882 18.2887829,37.9163733 18.4206833,37.678117 L19.8152932,35.1601765 L21.024868,36.342875 L22.16504,42.3618779 C22.2244947,42.6753188 22.4564616,42.9307404 22.7677793,43.0252648 C22.8533332,43.0512418 22.9409937,43.0638298 23.0280691,43.0638298 C23.2574611,43.0638298 23.4817035,42.9758283 23.648949,42.8124134 L31.7903765,34.8518852 C31.9275436,34.717766 32.0154382,34.5429074 32.04025,34.3547742 L33.129394,26.0981995 L38.9792419,20.3782185 C41.5426978,17.8717216 43.520736,14.7749625 44.6995301,11.4227817 C45.8780902,8.07094429 46.2658329,4.4395391 45.8208592,0.921654663 Z M8.96493308,22.6989855 L4.63586071,21.9149828 L11.3857212,15.3148727 L17.276415,14.5720671 L8.96493308,22.6989855 Z M17.4373405,35.8491971 L9.33617365,27.9281494 L11.3357465,26.8693854 L18.5200475,33.8941684 L17.4373405,35.8491971 Z M30.3371312,33.8451896 L23.5871536,40.4451853 L22.7852178,36.2124177 L31.0968167,28.0854993 L30.3371312,33.8451896 Z M37.737599,19.1647367 L21.8381564,34.7108998 L10.5003382,23.6250035 L26.3997808,8.07872595 C28.7098522,5.81986902 31.5496319,4.06476042 34.6259429,2.98745766 C35.0232827,4.98917636 36.024298,6.84613322 37.511367,8.30004564 C38.9983189,9.7540725 40.8973572,10.7328457 42.9446811,11.1214711 C41.8427801,14.1291988 40.0476704,16.9058797 37.737599,19.1647367 Z M43.473102,9.47233048 C41.6937923,9.17559731 40.0386586,8.34364585 38.7526587,7.08633489 C37.4666589,5.82902392 36.6159188,4.21055219 36.3124425,2.47077804 C38.8569385,1.80029611 41.5298238,1.5716525 44.1527344,1.80624679 C44.3927768,4.37087736 44.1588203,6.9843722 43.473102,9.47233048 Z" id="Shape" fill-rule="nonzero"></path>
                    <path d="M26.0428917,13.3194647 C23.9431496,15.4193541 23.9431496,18.8359207 26.0428917,20.93581 C27.0928812,21.9858139 28.4717987,22.5106383 29.8510712,22.5106383 C31.2298704,22.5106383 32.6093796,21.9855772 33.6591324,20.93581 L33.6592507,20.93581 C35.7589929,18.836039 35.7589929,15.4193541 33.6591324,13.3194647 C31.5592718,11.2196937 28.1426339,11.2198121 26.0428917,13.3194647 Z M32.4037848,19.6803269 C30.995987,21.0880257 28.705682,21.087789 27.2983576,19.6803269 C25.8906782,18.2727464 25.8906782,15.98241 27.2983576,14.5748295 C28.0020198,13.8710393 28.9265455,13.5192626 29.8509529,13.5192626 C30.7754786,13.5192626 31.6998859,13.8711577 32.4035481,14.5748295 C33.8112276,15.98241 33.8112276,18.2727464 32.4037848,19.6803269 Z" id="Shape" fill-rule="nonzero"></path>
                    <path d="M11.5008997,34.4991867 C11.175636,34.17403 10.6485536,34.17403 10.323401,34.4991867 L3.18003467,41.642532 C2.85488206,41.9676887 2.85488206,42.4948888 3.18003467,42.8199345 C3.34266648,42.9824574 3.5558085,43.0638298 3.76883952,43.0638298 C3.98187054,43.0638298 4.19501257,42.9825684 4.35764438,42.8199345 L11.5008997,35.6765892 C11.8259412,35.3515435 11.8259412,34.8243434 11.5008997,34.4991867 Z" id="Shape" fill-rule="nonzero"></path>
                    <path d="M12.2777589,37.4358601 L9.05287168,40.6608756 C8.72705696,40.9867033 8.72705696,41.5149914 9.05287168,41.8407078 C9.21583466,42.003566 9.42941072,42.0851064 9.64287554,42.0851064 C9.85634036,42.0851064 10.0699164,42.0036773 10.2328794,41.8407078 L13.4577666,38.6156923 C13.7835813,38.2898646 13.7835813,37.7615766 13.4577666,37.4358601 C13.1318407,37.1100324 12.6036849,37.1100324 12.2777589,37.4358601 Z" id="Shape" fill-rule="nonzero"></path>
                    <path d="M7.8301397,42.0851064 C7.42004269,42.0851064 7.04575402,42.3495526 6.9072254,42.734855 C6.7663444,43.1265595 6.89742384,43.5764056 7.22296612,43.8344497 C7.55582688,44.0983734 8.04185326,44.1127454 8.38974308,43.8690734 C8.76089525,43.6090694 8.91144711,43.1099663 8.73462708,42.6900403 C8.58917202,42.3274719 8.21906535,42.0851064 7.8301397,42.0851064 Z" id="Shape" fill-rule="nonzero"></path>
                    <path d="M8.82097091,42.1168655 C8.86746028,42.2272166 8.77692836,42.0067591 8.82097091,42.1168655 L8.82097091,42.1168655 Z" id="Shape" fill-rule="nonzero"></path>
                    <path d="M5.53152058,44.2688312 L5.12010454,44.6802878 C4.81813836,44.9821808 4.81813836,45.4716616 5.12000148,45.7735545 C5.27098457,45.9244495 5.46875696,46 5.66663241,46 C5.8644048,46 6.06228024,45.9245525 6.21316027,45.7736576 L6.62457631,45.362201 C6.92654249,45.0603081 6.92654249,44.5708272 6.62467937,44.2690373 C6.32281625,43.9672475 5.83328064,43.9669383 5.53152058,44.2688312 Z" id="Shape" fill-rule="nonzero"></path>
                    <path d="M4.64923721,36.4571367 C4.32330477,36.131309 3.79513847,36.131309 3.46931727,36.4571367 L0.244365903,39.6821522 C-0.0814553012,40.0079799 -0.0814553012,40.536268 0.244365903,40.8619844 C0.407332126,41.0248426 0.62091243,41.106383 0.834381496,41.106383 C1.04785056,41.106383 1.26143087,41.0249539 1.42439709,40.8619844 L4.64934845,37.6369689 C4.97505842,37.3112525 4.97505842,36.7829644 4.64923721,36.4571367 Z" id="Shape" fill-rule="nonzero"></path>
                    <path d="M6.10841565,36.183961 C6.50621874,36.0839619 6.80479984,35.7372986 6.84624038,35.3294593 C6.88689656,34.9301168 6.66727474,34.5387479 6.31078147,34.3586189 C5.93232601,34.1672482 5.45804747,34.2471167 5.16443401,34.5539112 C4.85003492,34.8824048 4.80467256,35.3939032 5.05305437,35.774161 C5.04521074,35.7623964 5.03919728,35.753769 5.05501528,35.7779518 C5.07148692,35.8021346 5.06586565,35.7933765 5.05802201,35.7817426 C5.2890171,36.117295 5.71061256,36.28396 6.10841565,36.183961 Z" id="Shape" fill-rule="nonzero"></path>
                    <path d="M8.17074605,34.0288811 L8.58210234,33.617438 C8.88399725,33.315555 8.88399725,32.8260903 8.58199927,32.5243104 C8.27979515,32.2223243 7.79031105,32.2224274 7.48882842,32.5244134 L7.07747213,32.9358565 C6.77557722,33.2377395 6.77557722,33.7272043 7.0775752,34.0289842 C7.22857419,34.1798742 7.42636741,34.2553191 7.62416062,34.2553191 C7.82195384,34.2553191 8.01985013,34.1798742 8.17074605,34.0288811 Z" id="Shape" fill-rule="nonzero"></path>
                </g>
                <text id="CMS-Installer" font-family="Lobster-Regular, Lobster" font-size="20" font-weight="normal" letter-spacing="0.4">
                    <tspan x="46" y="31">CMS-Installer</tspan>
                </text>
            </g>
        </g>
    </g>
</svg>